<svg width="25" height="25" viewBox="0 0 25 25" fill="none" xmlns="http://www.w3.org/2000/svg">
<path fill-rule="evenodd" clip-rule="evenodd" d="M1.76419 0.833252C1.70628 1.04944 1.66667 1.28262 1.66667 1.54901V23.4597C1.66667 23.7221 1.70628 23.9528 1.7619 24.1666L13.3333 12.5161L1.76419 0.833252Z" fill="#1C1C1D"/>
<path fill-rule="evenodd" clip-rule="evenodd" d="M18.3333 8.26903L4.09826 0.362865C3.53072 0.0182122 2.97201 -0.0691532 2.5 0.0510745L14.7435 11.6667L18.3333 8.26903Z" fill="#1C1C1D"/>
<path fill-rule="evenodd" clip-rule="evenodd" d="M23.1304 11.057L19.5256 9.16675L15.8333 12.4635L19.5942 15.8334L23.1014 14.0178C24.8136 13.0981 24.189 11.6177 23.1304 11.057Z" fill="#1C1C1D"/>
<path fill-rule="evenodd" clip-rule="evenodd" d="M2.5 24.9388C2.97687 25.0728 3.5464 24.9925 4.12551 24.6387L18.3333 16.8038L14.6965 13.3333L2.5 24.9388Z" fill="#1C1C1D"/>
</svg>
